<svg width="985" height="217" viewBox="0 0 985 217" fill="none" xmlns="http://www.w3.org/2000/svg">
<path d="M93.8 173C91.5333 173 89.6667 172.267 88.2 170.8C86.7333 169.333 86 167.533 86 165.4V113.4C86 105.133 84.4 98.3333 81.2 93C78.1333 87.6667 73.8667 83.6667 68.4 81C63.0667 78.3333 57 77 50.2 77C43.6667 77 37.7333 78.2667 32.4 80.8C27.2 83.3333 23.0667 86.8 20 91.2C16.9333 95.6 15.4 100.6 15.4 106.2H4.4C4.66667 97.8 6.93333 90.3333 11.2 83.8C15.4667 77.1333 21.1333 71.9333 28.2 68.2C35.2667 64.3333 43.1333 62.4 51.8 62.4C61.2667 62.4 69.7333 64.4 77.2 68.4C84.6667 72.2667 90.5333 78 94.8 85.6C99.2 93.2 101.4 102.467 101.4 113.4V165.4C101.4 167.533 100.667 169.333 99.2 170.8C97.7333 172.267 95.9333 173 93.8 173ZM7.8 173C5.4 173 3.46667 172.333 2 171C0.666667 169.533 0 167.667 0 165.4V71.4C0 69 0.666667 67.1333 2 65.8C3.46667 64.3333 5.4 63.6 7.8 63.6C10.0667 63.6 11.8667 64.3333 13.2 65.8C14.6667 67.1333 15.4 69 15.4 71.4V165.4C15.4 167.667 14.6667 169.533 13.2 171C11.8667 172.333 10.0667 173 7.8 173Z" fill="white"/>
<path d="M146.352 173C143.952 173 142.018 172.333 140.552 171C139.218 169.533 138.552 167.6 138.552 165.2V71.4C138.552 69 139.218 67.1333 140.552 65.8C142.018 64.3333 143.952 63.6 146.352 63.6C148.618 63.6 150.418 64.3333 151.752 65.8C153.218 67.1333 153.952 69 153.952 71.4V165.2C153.952 167.6 153.218 169.533 151.752 171C150.418 172.333 148.618 173 146.352 173ZM146.152 42.8C143.218 42.8 140.685 41.7333 138.552 39.6C136.418 37.4667 135.352 34.8667 135.352 31.8C135.352 28.4667 136.418 25.8667 138.552 24C140.818 22 143.418 21 146.352 21C149.152 21 151.618 22 153.752 24C156.018 25.8667 157.152 28.4667 157.152 31.8C157.152 34.8667 156.085 37.4667 153.952 39.6C151.818 41.7333 149.218 42.8 146.152 42.8Z" fill="white"/>
<path d="M241.364 174C230.831 174 221.497 171.667 213.364 167C205.231 162.2 198.831 155.6 194.164 147.2C189.631 138.8 187.364 129.2 187.364 118.4C187.364 107.467 189.764 97.8 194.564 89.4C199.364 81 205.964 74.4667 214.364 69.8C222.764 65 232.297 62.6 242.964 62.6C253.764 62.6 263.297 65 271.564 69.8C279.964 74.4667 286.497 81 291.164 89.4C295.964 97.8 298.431 107.467 298.564 118.4L289.564 123.2C289.564 133.067 287.497 141.867 283.364 149.6C279.231 157.2 273.497 163.2 266.164 167.6C258.964 171.867 250.697 174 241.364 174ZM243.364 216.2C232.831 216.2 223.564 214.2 215.564 210.2C207.564 206.333 200.964 201 195.764 194.2C194.297 192.6 193.631 190.867 193.764 189C194.031 187.133 195.031 185.6 196.764 184.4C198.497 183.2 200.431 182.8 202.564 183.2C204.697 183.6 206.364 184.6 207.564 186.2C211.431 191 216.364 194.867 222.364 197.8C228.497 200.733 235.564 202.2 243.564 202.2C251.031 202.2 257.764 200.4 263.764 196.8C269.764 193.2 274.497 188.133 277.964 181.6C281.564 175.067 283.364 167.4 283.364 158.6V128.2L289.164 116.6L298.564 118.4V159.2C298.564 170 296.164 179.667 291.364 188.2C286.564 196.867 280.031 203.667 271.764 208.6C263.497 213.667 254.031 216.2 243.364 216.2ZM242.964 160C250.831 160 257.764 158.267 263.764 154.8C269.897 151.2 274.697 146.267 278.164 140C281.631 133.733 283.364 126.533 283.364 118.4C283.364 110.267 281.631 103.067 278.164 96.8C274.697 90.4 269.897 85.4667 263.764 82C257.764 78.4 250.831 76.6 242.964 76.6C235.097 76.6 228.097 78.4 221.964 82C215.831 85.4667 211.031 90.4 207.564 96.8C204.097 103.067 202.364 110.267 202.364 118.4C202.364 126.533 204.097 133.733 207.564 140C211.031 146.267 215.831 151.2 221.964 154.8C228.097 158.267 235.097 160 242.964 160Z" fill="white"/>
<path d="M336.316 128.4C333.916 128.4 331.982 127.667 330.516 126.2C329.182 124.733 328.516 122.867 328.516 120.6V24.6C328.516 22.2 329.182 20.3333 330.516 19C331.982 17.5333 333.916 16.8 336.316 16.8C338.582 16.8 340.382 17.5333 341.716 19C343.182 20.3333 343.916 22.2 343.916 24.6V120.6C343.916 122.867 343.182 124.733 341.716 126.2C340.382 127.667 338.582 128.4 336.316 128.4ZM422.316 173C420.049 173 418.182 172.267 416.716 170.8C415.249 169.333 414.516 167.533 414.516 165.4V113.4C414.516 105.133 412.916 98.3333 409.716 93C406.649 87.6667 402.382 83.6667 396.916 81C391.582 78.3333 385.516 77 378.716 77C372.182 77 366.249 78.2667 360.916 80.8C355.716 83.3333 351.582 86.8 348.516 91.2C345.449 95.6 343.916 100.6 343.916 106.2H332.916C333.182 97.8 335.449 90.3333 339.716 83.8C343.982 77.1333 349.649 71.9333 356.716 68.2C363.782 64.3333 371.649 62.4 380.316 62.4C389.782 62.4 398.249 64.4 405.716 68.4C413.182 72.2667 419.049 78 423.316 85.6C427.716 93.2 429.916 102.467 429.916 113.4V165.4C429.916 167.533 429.182 169.333 427.716 170.8C426.249 172.267 424.449 173 422.316 173ZM336.316 173C333.916 173 331.982 172.333 330.516 171C329.182 169.533 328.516 167.667 328.516 165.4V71.4C328.516 69 329.182 67.1333 330.516 65.8C331.982 64.3333 333.916 63.6 336.316 63.6C338.582 63.6 340.382 64.3333 341.716 65.8C343.182 67.1333 343.916 69 343.916 71.4V165.4C343.916 167.667 343.182 169.533 341.716 171C340.382 172.333 338.582 173 336.316 173Z" fill="white"/>
<path d="M506.667 173C499.601 173 493.267 171.333 487.667 168C482.201 164.667 477.867 160.133 474.667 154.4C471.467 148.533 469.867 141.867 469.867 134.4V36.6C469.867 34.3333 470.534 32.4666 471.867 31C473.334 29.5333 475.201 28.8 477.467 28.8C479.734 28.8 481.601 29.5333 483.067 31C484.534 32.4666 485.267 34.3333 485.267 36.6V134.4C485.267 141.2 487.267 146.8 491.267 151.2C495.267 155.467 500.401 157.6 506.667 157.6H512.067C514.201 157.6 515.934 158.333 517.267 159.8C518.601 161.267 519.267 163.133 519.267 165.4C519.267 167.667 518.467 169.533 516.867 171C515.267 172.333 513.267 173 510.867 173H506.667ZM456.867 81C454.867 81 453.201 80.4 451.867 79.2C450.534 77.8667 449.867 76.2667 449.867 74.4C449.867 72.4 450.534 70.8 451.867 69.6C453.201 68.2667 454.867 67.6 456.867 67.6H507.867C509.867 67.6 511.534 68.2667 512.867 69.6C514.201 70.8 514.867 72.4 514.867 74.4C514.867 76.2667 514.201 77.8667 512.867 79.2C511.534 80.4 509.867 81 507.867 81H456.867Z" fill="white"/>
<path d="M567.936 173C562.603 173 557.803 171.533 553.536 168.6C549.403 165.667 546.136 161.6 543.736 156.4C541.469 151.2 540.336 145.2 540.336 138.4V24.4C540.336 22.1333 541.003 20.3333 542.336 19C543.803 17.5333 545.669 16.8 547.936 16.8C550.203 16.8 552.003 17.5333 553.336 19C554.803 20.3333 555.536 22.1333 555.536 24.4V138.4C555.536 144.133 556.669 148.8 558.936 152.4C561.336 156 564.336 157.8 567.936 157.8H572.936C574.936 157.8 576.536 158.533 577.736 160C578.936 161.333 579.536 163.133 579.536 165.4C579.536 167.667 578.669 169.533 576.936 171C575.336 172.333 573.203 173 570.536 173H567.936Z" fill="white"/>
<path d="M706.794 174C696.26 174 686.927 171.667 678.794 167C670.66 162.2 664.26 155.6 659.594 147.2C655.06 138.8 652.794 129.2 652.794 118.4C652.794 107.467 655.194 97.8 659.994 89.4C664.794 81 671.394 74.4667 679.794 69.8C688.194 65 697.727 62.6 708.394 62.6C719.194 62.6 728.727 65 736.994 69.8C745.394 74.4667 751.927 81 756.594 89.4C761.394 97.8 763.86 107.467 763.994 118.4L754.994 123.2C754.994 133.067 752.927 141.867 748.794 149.6C744.66 157.2 738.927 163.2 731.594 167.6C724.394 171.867 716.127 174 706.794 174ZM708.794 216.2C698.26 216.2 688.994 214.2 680.994 210.2C672.994 206.333 666.394 201 661.194 194.2C659.727 192.6 659.06 190.867 659.194 189C659.46 187.133 660.46 185.6 662.194 184.4C663.927 183.2 665.86 182.8 667.994 183.2C670.127 183.6 671.794 184.6 672.994 186.2C676.86 191 681.794 194.867 687.794 197.8C693.927 200.733 700.994 202.2 708.994 202.2C716.46 202.2 723.194 200.4 729.194 196.8C735.194 193.2 739.927 188.133 743.394 181.6C746.994 175.067 748.794 167.4 748.794 158.6V128.2L754.594 116.6L763.994 118.4V159.2C763.994 170 761.594 179.667 756.794 188.2C751.994 196.867 745.46 203.667 737.194 208.6C728.927 213.667 719.46 216.2 708.794 216.2ZM708.394 160C716.26 160 723.194 158.267 729.194 154.8C735.327 151.2 740.127 146.267 743.594 140C747.06 133.733 748.794 126.533 748.794 118.4C748.794 110.267 747.06 103.067 743.594 96.8C740.127 90.4 735.327 85.4667 729.194 82C723.194 78.4 716.26 76.6 708.394 76.6C700.527 76.6 693.527 78.4 687.394 82C681.26 85.4667 676.46 90.4 672.994 96.8C669.527 103.067 667.794 110.267 667.794 118.4C667.794 126.533 669.527 133.733 672.994 140C676.46 146.267 681.26 151.2 687.394 154.8C693.527 158.267 700.527 160 708.394 160Z" fill="white"/>
<path d="M801.745 128.4C799.345 128.4 797.412 127.667 795.945 126.2C794.612 124.733 793.945 122.867 793.945 120.6V24.6C793.945 22.2 794.612 20.3333 795.945 19C797.412 17.5333 799.345 16.8 801.745 16.8C804.012 16.8 805.812 17.5333 807.145 19C808.612 20.3333 809.345 22.2 809.345 24.6V120.6C809.345 122.867 808.612 124.733 807.145 126.2C805.812 127.667 804.012 128.4 801.745 128.4ZM887.745 173C885.479 173 883.612 172.267 882.145 170.8C880.679 169.333 879.945 167.533 879.945 165.4V113.4C879.945 105.133 878.345 98.3333 875.145 93C872.079 87.6667 867.812 83.6667 862.345 81C857.012 78.3333 850.945 77 844.145 77C837.612 77 831.679 78.2667 826.345 80.8C821.145 83.3333 817.012 86.8 813.945 91.2C810.879 95.6 809.345 100.6 809.345 106.2H798.345C798.612 97.8 800.879 90.3333 805.145 83.8C809.412 77.1333 815.079 71.9333 822.145 68.2C829.212 64.3333 837.079 62.4 845.745 62.4C855.212 62.4 863.679 64.4 871.145 68.4C878.612 72.2667 884.479 78 888.745 85.6C893.145 93.2 895.345 102.467 895.345 113.4V165.4C895.345 167.533 894.612 169.333 893.145 170.8C891.679 172.267 889.879 173 887.745 173ZM801.745 173C799.345 173 797.412 172.333 795.945 171C794.612 169.533 793.945 167.667 793.945 165.4V71.4C793.945 69 794.612 67.1333 795.945 65.8C797.412 64.3333 799.345 63.6 801.745 63.6C804.012 63.6 805.812 64.3333 807.145 65.8C808.612 67.1333 809.345 69 809.345 71.4V165.4C809.345 167.667 808.612 169.533 807.145 171C805.812 172.333 804.012 173 801.745 173Z" fill="white"/>
<path d="M972.097 173C965.03 173 958.697 171.333 953.097 168C947.63 164.667 943.297 160.133 940.097 154.4C936.897 148.533 935.297 141.867 935.297 134.4V36.6C935.297 34.3333 935.964 32.4666 937.297 31C938.764 29.5333 940.63 28.8 942.897 28.8C945.164 28.8 947.03 29.5333 948.497 31C949.964 32.4666 950.697 34.3333 950.697 36.6V134.4C950.697 141.2 952.697 146.8 956.697 151.2C960.697 155.467 965.83 157.6 972.097 157.6H977.497C979.63 157.6 981.364 158.333 982.697 159.8C984.03 161.267 984.697 163.133 984.697 165.4C984.697 167.667 983.897 169.533 982.297 171C980.697 172.333 978.697 173 976.297 173H972.097ZM922.297 81C920.297 81 918.63 80.4 917.297 79.2C915.964 77.8667 915.297 76.2667 915.297 74.4C915.297 72.4 915.964 70.8 917.297 69.6C918.63 68.2667 920.297 67.6 922.297 67.6H973.297C975.297 67.6 976.964 68.2667 978.297 69.6C979.63 70.8 980.297 72.4 980.297 74.4C980.297 76.2667 979.63 77.8667 978.297 79.2C976.964 80.4 975.297 81 973.297 81H922.297Z" fill="white"/>
<rect x="603" y="64" width="17" height="109" rx="8.5" fill="white"/>
<g filter="url(#filter0_d_527_665)">
<circle cx="611.5" cy="31.5" r="11.5" fill="#4A86E8"/>
</g>
<defs>
<filter id="filter0_d_527_665" x="580" y="0" width="63" height="63" filterUnits="userSpaceOnUse" color-interpolation-filters="sRGB">
<feFlood flood-opacity="0" result="BackgroundImageFix"/>
<feColorMatrix in="SourceAlpha" type="matrix" values="0 0 0 0 0 0 0 0 0 0 0 0 0 0 0 0 0 0 127 0" result="hardAlpha"/>
<feMorphology radius="5" operator="dilate" in="SourceAlpha" result="effect1_dropShadow_527_665"/>
<feOffset/>
<feGaussianBlur stdDeviation="7.5"/>
<feComposite in2="hardAlpha" operator="out"/>
<feColorMatrix type="matrix" values="0 0 0 0 0.290196 0 0 0 0 0.52549 0 0 0 0 0.909804 0 0 0 1 0"/>
<feBlend mode="normal" in2="BackgroundImageFix" result="effect1_dropShadow_527_665"/>
<feBlend mode="normal" in="SourceGraphic" in2="effect1_dropShadow_527_665" result="shape"/>
</filter>
</defs>
</svg>
